<svg xmlns="http://www.w3.org/2000/svg" viewBox="0 0 1135.26 108.44"><defs><style>.cls-1{fill:#5a5a5a;}</style></defs><title>Asset 1</title><g id="Layer_2" data-name="Layer 2"><g id="Layer_1-2" data-name="Layer 1"><path class="cls-1" d="M0,5.31A99.76,99.76,0,0,1,18.76,3.66C29,3.66,35.63,5.43,40.59,9.44c4.13,3.07,6.61,7.79,6.61,14,0,7.67-5.08,14.4-13.45,17.46v.24c7.55,1.89,16.4,8.14,16.4,19.94a21.43,21.43,0,0,1-6.73,15.93c-5.54,5.08-14.51,7.44-27.49,7.44A120.11,120.11,0,0,1,0,83.54ZM10.27,37.88h9.32c10.85,0,17.22-5.67,17.22-13.34,0-9.32-7.08-13-17.46-13a44.2,44.2,0,0,0-9.08.71Zm0,38.11a55.27,55.27,0,0,0,8.61.47c10.62,0,20.41-3.89,20.41-15.46,0-10.85-9.32-15.34-20.53-15.34H10.27Z"/><path class="cls-1" d="M68.08,26.67,79.29,58.76A146.29,146.29,0,0,1,83.9,73.39h.35c1.3-4.72,3-9.44,4.84-14.63l11.09-32.09H111L88.62,83.78H78.7L57,26.67Z"/><path class="cls-1" d="M121.18,4.25h10.27V75.16h34v8.62H121.18Z"/><path class="cls-1" d="M201.89,5.31A107.15,107.15,0,0,1,221.6,3.66c11,0,18.05,2,23,6.49,4,3.54,6.25,9,6.25,15.1,0,10.5-6.61,17.46-15,20.3v.35C242,48,245.67,53.69,247.56,62,250.15,73,252,80.71,253.69,83.78H243.07c-1.29-2.24-3.06-9.09-5.31-19-2.36-11-6.6-15.1-15.93-15.46h-9.67V83.78H201.89Zm10.27,36.22h10.5c11,0,17.94-6,17.94-15.1,0-10.26-7.44-14.75-18.29-14.87a42.23,42.23,0,0,0-10.15.95Z"/><path class="cls-1" d="M271.28,57.11c.23,14,9.2,19.82,19.58,19.82,7.44,0,11.92-1.29,15.81-3l1.77,7.44c-3.65,1.65-9.91,3.54-19,3.54-17.58,0-28.09-11.57-28.09-28.79s10.15-30.8,26.79-30.8c18.64,0,23.6,16.4,23.6,26.9a38.43,38.43,0,0,1-.36,4.84Zm30.44-7.43c.12-6.61-2.72-16.88-14.4-16.88-10.5,0-15.1,9.68-15.93,16.88Z"/><path class="cls-1" d="M336.17,10.62c.12,3.54-2.47,6.37-6.6,6.37a6.18,6.18,0,0,1-6.26-6.37,6.33,6.33,0,0,1,6.49-6.49A6.16,6.16,0,0,1,336.17,10.62ZM324.61,83.78V26.67H335V83.78Z"/><path class="cls-1" d="M352.22,42.12c0-5.89-.12-10.73-.47-15.45H361l.59,9.44h.24c2.83-5.43,9.44-10.74,18.88-10.74,7.9,0,20.18,4.72,20.18,24.31v34.1H390.45V50.86C390.45,41.65,387,34,377.24,34A14.76,14.76,0,0,0,363.31,44.6a15,15,0,0,0-.7,4.84V83.78H352.22Z"/><path class="cls-1" d="M429.27,10.62c.12,3.54-2.47,6.37-6.6,6.37a6.18,6.18,0,0,1-6.26-6.37,6.33,6.33,0,0,1,6.49-6.49A6.16,6.16,0,0,1,429.27,10.62ZM417.71,83.78V26.67h10.38V83.78Z"/><path class="cls-1" d="M494.53,26.67c-.24,4.13-.48,8.73-.48,15.69V75.52c0,13.1-2.59,21.12-8.14,26.07-5.54,5.2-13.57,6.85-20.76,6.85-6.85,0-14.4-1.65-19-4.72l2.59-7.91a32.23,32.23,0,0,0,16.76,4.49c10.62,0,18.41-5.55,18.41-19.94V74h-.24c-3.19,5.31-9.32,9.56-18.17,9.56-14.16,0-24.31-12-24.31-27.85,0-19.35,12.63-30.32,25.73-30.32,9.91,0,15.33,5.19,17.81,9.91H485l.47-8.61ZM483.79,49.2a14.86,14.86,0,0,0-.59-4.72c-1.89-6-7-11-14.51-11-9.92,0-17,8.38-17,21.59,0,11.21,5.67,20.54,16.88,20.54A15.18,15.18,0,0,0,483,65a18.1,18.1,0,0,0,.83-5.55Z"/><path class="cls-1" d="M559.07,68.2c0,5.9.12,11.09.47,15.58h-9.2l-.59-9.32h-.24a21.48,21.48,0,0,1-18.88,10.62c-9,0-19.7-5-19.7-25V26.67h10.38V58.29c0,10.86,3.31,18.17,12.75,18.17A15,15,0,0,0,547.74,67a15.16,15.16,0,0,0,1-5.31v-35h10.38Z"/><path class="cls-1" d="M576.3,42.12c0-5.89-.12-10.73-.47-15.45H585l.59,9.44h.24c2.83-5.43,9.44-10.74,18.88-10.74,7.9,0,20.18,4.72,20.18,24.31v34.1H614.53V50.86c0-9.21-3.42-16.88-13.21-16.88A14.76,14.76,0,0,0,587.39,44.6a15,15,0,0,0-.71,4.84V83.78H576.3Z"/><path class="cls-1" d="M691,26.67c-.23,4.13-.47,8.73-.47,15.69V75.52c0,13.1-2.59,21.12-8.14,26.07-5.55,5.2-13.57,6.85-20.77,6.85-6.84,0-14.39-1.65-19-4.72l2.59-7.91A32.23,32.23,0,0,0,662,100.3c10.62,0,18.4-5.55,18.4-19.94V74h-.23c-3.19,5.31-9.32,9.56-18.17,9.56-14.16,0-24.31-12-24.31-27.85,0-19.35,12.63-30.32,25.72-30.32,9.91,0,15.34,5.19,17.82,9.91h.24l.47-8.61ZM680.26,49.2a14.86,14.86,0,0,0-.59-4.72c-1.89-6-7-11-14.52-11-9.91,0-17,8.38-17,21.59,0,11.21,5.67,20.54,16.88,20.54A15.18,15.18,0,0,0,679.43,65a18.1,18.1,0,0,0,.83-5.55Z"/><path class="cls-1" d="M706.33,73.16A27.29,27.29,0,0,0,720,77.29c7.55,0,11.09-3.78,11.09-8.5,0-5-3-7.67-10.62-10.5-10.26-3.66-15.1-9.32-15.1-16.17,0-9.2,7.43-16.75,19.71-16.75a28.49,28.49,0,0,1,14,3.54l-2.6,7.55a22.18,22.18,0,0,0-11.68-3.3c-6.14,0-9.56,3.54-9.56,7.78,0,4.72,3.42,6.85,10.86,9.68,9.91,3.78,15,8.73,15,17.23,0,10-7.78,17.11-21.35,17.11a32.55,32.55,0,0,1-16-3.9Z"/><path class="cls-1" d="M786.1,83.78l-.82-7.2h-.36a21.27,21.27,0,0,1-17.46,8.5c-11.57,0-17.47-8.15-17.47-16.41,0-13.8,12.28-21.35,34.34-21.24V46.25c0-4.72-1.3-13.21-13-13.21a28.45,28.45,0,0,0-14.87,4.25l-2.36-6.85c4.72-3.06,11.57-5.07,18.77-5.07,17.46,0,21.71,11.92,21.71,23.36V70.09a80.28,80.28,0,0,0,.94,13.69Zm-1.53-29.15c-11.33-.23-24.19,1.77-24.19,12.86,0,6.73,4.48,9.92,9.79,9.92A14.21,14.21,0,0,0,784,67.85a10.94,10.94,0,0,0,.59-3.31Z"/><path class="cls-1" d="M811.35,42.12c0-5.89-.11-10.73-.47-15.45h9.2l.59,9.44h.24c2.83-5.43,9.44-10.74,18.88-10.74,7.91,0,20.18,4.72,20.18,24.31v34.1H849.58V50.86c0-9.21-3.42-16.88-13.21-16.88A14.76,14.76,0,0,0,822.44,44.6a15,15,0,0,0-.7,4.84V83.78H811.35Z"/><path class="cls-1" d="M876.84,0h10.39V83.78H876.84Z"/><path class="cls-1" d="M936.31,83.78l-.82-7.2h-.36a21.27,21.27,0,0,1-17.46,8.5c-11.56,0-17.46-8.15-17.46-16.41,0-13.8,12.27-21.35,34.33-21.24V46.25c0-4.72-1.29-13.21-13-13.21a28.39,28.39,0,0,0-14.86,4.25l-2.36-6.85c4.72-3.06,11.56-5.07,18.76-5.07,17.46,0,21.71,11.92,21.71,23.36V70.09a80.28,80.28,0,0,0,.94,13.69Zm-1.53-29.15c-11.33-.23-24.19,1.77-24.19,12.86,0,6.73,4.48,9.92,9.79,9.92a14.21,14.21,0,0,0,13.81-9.56,10.94,10.94,0,0,0,.59-3.31Z"/><path class="cls-1" d="M1010.77,26.67c-.24,4.13-.47,8.73-.47,15.69V75.52c0,13.1-2.6,21.12-8.14,26.07-5.55,5.2-13.57,6.85-20.77,6.85-6.85,0-14.4-1.65-19-4.72l2.6-7.91a32.16,32.16,0,0,0,16.75,4.49c10.62,0,18.41-5.55,18.41-19.94V74h-.24c-3.18,5.31-9.32,9.56-18.17,9.56-14.16,0-24.31-12-24.31-27.85,0-19.35,12.63-30.32,25.73-30.32,9.91,0,15.34,5.19,17.82,9.91h.23l.47-8.61ZM1000,49.2a14.86,14.86,0,0,0-.59-4.72c-1.89-6-7-11-14.51-11-9.91,0-17,8.38-17,21.59,0,11.21,5.66,20.54,16.87,20.54A15.2,15.2,0,0,0,999.21,65a18.08,18.08,0,0,0,.82-5.55Z"/><path class="cls-1" d="M1033.31,57.11c.23,14,9.2,19.82,19.58,19.82,7.44,0,11.92-1.29,15.82-3l1.77,7.44c-3.66,1.65-9.92,3.54-19,3.54-17.58,0-28.08-11.57-28.08-28.79s10.14-30.8,26.78-30.8c18.64,0,23.6,16.4,23.6,26.9a40.91,40.91,0,0,1-.35,4.84Zm30.44-7.43c.12-6.61-2.71-16.88-14.39-16.88-10.51,0-15.11,9.68-15.93,16.88Z"/><path class="cls-1" d="M1086.64,42.12c0-5.89-.11-10.73-.47-15.45h9.21l.58,9.44h.24c2.83-5.43,9.44-10.74,18.88-10.74,7.91,0,20.18,4.72,20.18,24.31v34.1h-10.39V50.86c0-9.21-3.42-16.88-13.21-16.88a14.76,14.76,0,0,0-13.93,10.62,15,15,0,0,0-.7,4.84V83.78h-10.39Z"/></g></g></svg>