<svg xmlns="http://www.w3.org/2000/svg" viewBox="0 0 28 28"><defs><style>.cls-1,.cls-3{fill:#fff;}.cls-1{stroke:#000;stroke-miterlimit:10;}.cls-2{fill:#00acea;}</style></defs><title>play</title><g id="Capa_1" data-name="Capa 1"><circle class="cls-1" cx="13.7" cy="14" r="9.5"/><path class="cls-2" d="M14,0A14,14,0,1,0,28,14,14,14,0,0,0,14,0Zm6,17.8L17.8,20A45.42,45.42,0,0,0,14,16.2c-1.3,1.2-2.6,2.5-3.8,3.8L8,17.8A45.42,45.42,0,0,0,11.8,14,45.38,45.38,0,0,0,8,10.2L10.2,8s3.6,3.8,3.8,3.8S17.8,8,17.8,8L20,10.2c-1.3,1.2-2.6,2.5-3.8,3.8C16.2,14.2,20,17.8,20,17.8Z"/><rect class="cls-2" x="7.02" y="7.24" width="14.08" height="17.02"/></g><g id="Layer_2" data-name="Layer 2"><path class="cls-3" d="M9.66,8.47v10.4l11-4.81S9.66,8.32,9.66,8.47Z"/></g></svg>